<svg xmlns="http://www.w3.org/2000/svg" xmlns:xlink="http://www.w3.org/1999/xlink" width="84.88800329589846" height="30.023995880126968" viewBox="4.21199011230467 0 84.88800329589846 30.023995880126968" version="1.1">
<defs>
<clipPath id="clip1">
  <path d="M 69.839844 3.238281 L 89.25 3.238281 L 89.25 29 L 69.839844 29 Z M 69.839844 3.238281 "></path>
</clipPath>
<clipPath id="clip2">
  <path d="M 15.308594 15.90625 L 76.40625 15.90625 L 76.40625 20.867188 L 15.308594 20.867188 Z M 15.308594 15.90625 "></path>
</clipPath>
<clipPath id="clip3">
  <path d="M 21.6875 17 L 23.761719 17 L 23.761719 19 L 21.6875 19 Z M 21.6875 17 "></path>
</clipPath>
</defs>
<g id="surface1">
<path style=" stroke:none;fill-rule:nonzero;fill:rgb(13.725491%,12.156863%,12.54902%);fill-opacity:1;" d="M 2.734375 12.125 L 2.734375 3.578125 L 21.96875 3.578125 L 21.96875 12.125 L 21.742188 12.125 C 21.742188 11.488281 21.640625 10.804688 21.445312 10.074219 C 21.246094 9.34375 20.964844 8.621094 20.601562 7.902344 C 20.234375 7.183594 19.8125 6.53125 19.335938 5.945312 C 18.855469 5.359375 18.332031 4.894531 17.765625 4.542969 C 17.203125 4.195312 16.617188 4.019531 16.015625 4.019531 L 15.789062 4.019531 L 15.789062 25.785156 C 15.789062 26.597656 15.902344 27.25 16.121094 27.742188 C 16.347656 28.230469 16.71875 28.539062 17.238281 28.675781 L 17.238281 28.894531 L 7.242188 28.894531 L 7.242188 28.675781 C 7.757812 28.539062 8.125 28.230469 8.347656 27.742188 C 8.574219 27.25 8.6875 26.597656 8.6875 25.785156 L 8.6875 4.019531 C 8.09375 4.019531 7.511719 4.195312 6.941406 4.542969 C 6.371094 4.894531 5.847656 5.359375 5.363281 5.945312 C 4.882812 6.53125 4.460938 7.183594 4.097656 7.902344 C 3.738281 8.621094 3.457031 9.34375 3.253906 10.074219 C 3.054688 10.804688 2.953125 11.488281 2.953125 12.125 Z M 2.734375 12.125 "></path>
<path style=" stroke:none;fill-rule:nonzero;fill:rgb(13.725491%,12.156863%,12.54902%);fill-opacity:1;" d="M 22.414062 28.675781 C 22.929688 28.539062 23.296875 28.230469 23.519531 27.742188 C 23.742188 27.25 23.851562 26.597656 23.851562 25.785156 L 23.851562 6.6875 C 23.851562 5.859375 23.742188 5.207031 23.519531 4.722656 C 23.296875 4.242188 22.929688 3.933594 22.414062 3.800781 L 22.414062 3.578125 L 30.871094 3.578125 L 35.800781 18.746094 L 39.355469 3.578125 L 47.90625 3.578125 L 47.90625 3.800781 C 47.386719 3.933594 47.015625 4.242188 46.792969 4.722656 C 46.570312 5.207031 46.460938 5.859375 46.460938 6.6875 L 46.460938 25.785156 C 46.460938 26.597656 46.570312 27.25 46.792969 27.742188 C 47.015625 28.230469 47.386719 28.539062 47.90625 28.675781 L 47.90625 28.894531 L 37.910156 28.894531 L 37.910156 28.675781 C 38.429688 28.539062 38.800781 28.230469 39.023438 27.742188 C 39.242188 27.25 39.355469 26.597656 39.355469 25.785156 L 39.355469 5.753906 L 33.9375 28.894531 L 31.957031 28.894531 L 24.296875 5.285156 L 24.296875 10.152344 C 24.296875 11.351562 24.367188 12.617188 24.503906 13.949219 C 24.648438 15.28125 24.851562 16.613281 25.117188 17.949219 C 25.382812 19.28125 25.703125 20.558594 26.074219 21.777344 C 26.445312 23 26.851562 24.105469 27.296875 25.097656 C 27.742188 26.089844 28.214844 26.894531 28.71875 27.515625 C 29.21875 28.140625 29.746094 28.527344 30.292969 28.675781 L 30.292969 28.894531 L 22.414062 28.894531 Z M 22.414062 28.675781 "></path>
<path style=" stroke:none;fill-rule:nonzero;fill:rgb(13.725491%,12.156863%,12.54902%);fill-opacity:1;" d="M 48.351562 3.800781 L 48.351562 3.578125 L 58.101562 3.578125 C 60.304688 3.578125 62.222656 4.050781 63.851562 5 C 65.480469 5.949219 66.738281 7.359375 67.625 9.230469 C 68.511719 11.101562 68.957031 13.4375 68.957031 16.238281 C 68.957031 19.023438 68.511719 21.355469 67.625 23.234375 C 66.738281 25.113281 65.480469 26.53125 63.851562 27.476562 C 62.222656 28.421875 60.304688 28.894531 58.101562 28.894531 L 48.351562 28.894531 L 48.351562 28.675781 C 48.871094 28.539062 49.238281 28.230469 49.460938 27.742188 C 49.683594 27.25 49.792969 26.597656 49.792969 25.785156 L 49.792969 6.6875 C 49.792969 5.859375 49.683594 5.207031 49.460938 4.722656 C 49.238281 4.242188 48.871094 3.933594 48.351562 3.800781 Z M 56.902344 4.179688 L 56.902344 28.292969 C 57.761719 28.277344 58.476562 28.046875 59.046875 27.59375 C 59.617188 27.144531 60.070312 26.53125 60.40625 25.757812 C 60.746094 24.976562 61.003906 24.078125 61.171875 23.066406 C 61.34375 22.050781 61.460938 20.964844 61.519531 19.808594 C 61.582031 18.65625 61.613281 17.472656 61.613281 16.261719 C 61.613281 15.046875 61.582031 13.859375 61.519531 12.695312 C 61.460938 11.535156 61.34375 10.445312 61.171875 9.433594 C 61.003906 8.417969 60.746094 7.515625 60.40625 6.730469 C 60.070312 5.949219 59.617188 5.332031 59.046875 4.882812 C 58.476562 4.429688 57.761719 4.195312 56.902344 4.179688 Z M 56.902344 4.179688 "></path>
<g clip-path="url(#clip1)" clip-rule="nonzero">
<path style=" stroke:none;fill-rule:nonzero;fill:rgb(13.725491%,12.156863%,12.54902%);fill-opacity:1;" d="M 69.851562 12.125 L 69.851562 3.578125 L 89.082031 3.578125 L 89.082031 12.125 L 88.859375 12.125 C 88.859375 11.488281 88.757812 10.804688 88.5625 10.074219 C 88.359375 9.34375 88.078125 8.621094 87.71875 7.902344 C 87.351562 7.183594 86.929688 6.53125 86.453125 5.945312 C 85.96875 5.359375 85.449219 4.894531 84.882812 4.542969 C 84.320312 4.195312 83.734375 4.019531 83.132812 4.019531 L 82.90625 4.019531 L 82.90625 25.785156 C 82.90625 26.597656 83.015625 27.25 83.238281 27.742188 C 83.464844 28.230469 83.835938 28.539062 84.351562 28.675781 L 84.351562 28.894531 L 74.359375 28.894531 L 74.359375 28.675781 C 74.875 28.539062 75.242188 28.230469 75.464844 27.742188 C 75.691406 27.25 75.804688 26.597656 75.804688 25.785156 L 75.804688 4.019531 C 75.210938 4.019531 74.628906 4.195312 74.058594 4.542969 C 73.488281 4.894531 72.960938 5.359375 72.480469 5.945312 C 71.996094 6.53125 71.574219 7.183594 71.214844 7.902344 C 70.851562 8.621094 70.570312 9.34375 70.371094 10.074219 C 70.167969 10.804688 70.070312 11.488281 70.070312 12.125 Z M 69.851562 12.125 "></path>
</g>
<g clip-path="url(#clip2)" clip-rule="nonzero">
<path style=" stroke:none;fill-rule:nonzero;fill:rgb(92.156863%,90.980393%,90.980393%);fill-opacity:1;" d="M 15.308594 15.90625 L 76.402344 15.90625 L 76.402344 20.867188 L 15.308594 20.867188 Z M 15.308594 15.90625 "></path>
</g>
<g clip-path="url(#clip3)" clip-rule="nonzero">
<path style=" stroke:none;fill-rule:nonzero;fill:rgb(13.725491%,12.156863%,12.54902%);fill-opacity:1;" d="M 22.726562 18.839844 C 22.484375 18.839844 22.289062 18.761719 22.140625 18.597656 C 21.992188 18.4375 21.921875 18.238281 21.921875 17.992188 C 21.921875 17.726562 21.988281 17.511719 22.128906 17.351562 C 22.269531 17.1875 22.46875 17.101562 22.726562 17.101562 C 22.828125 17.101562 22.929688 17.121094 23.023438 17.160156 C 23.117188 17.191406 23.199219 17.246094 23.277344 17.316406 C 23.355469 17.382812 23.417969 17.476562 23.460938 17.59375 C 23.507812 17.703125 23.53125 17.832031 23.53125 17.976562 C 23.53125 18.109375 23.507812 18.230469 23.472656 18.335938 C 23.433594 18.4375 23.390625 18.519531 23.332031 18.582031 C 23.277344 18.644531 23.210938 18.695312 23.136719 18.734375 C 23.0625 18.777344 22.996094 18.804688 22.925781 18.820312 C 22.859375 18.832031 22.792969 18.839844 22.726562 18.839844 Z M 22.726562 17.292969 C 22.617188 17.292969 22.523438 17.316406 22.445312 17.355469 C 22.363281 17.398438 22.304688 17.453125 22.265625 17.523438 C 22.222656 17.597656 22.191406 17.671875 22.171875 17.75 C 22.160156 17.824219 22.152344 17.90625 22.152344 17.996094 C 22.152344 18.1875 22.203125 18.347656 22.304688 18.46875 C 22.40625 18.589844 22.546875 18.648438 22.726562 18.648438 C 22.90625 18.648438 23.046875 18.589844 23.148438 18.464844 C 23.25 18.335938 23.296875 18.175781 23.296875 17.976562 C 23.296875 17.847656 23.277344 17.738281 23.242188 17.644531 C 23.207031 17.550781 23.160156 17.480469 23.101562 17.429688 C 23.046875 17.382812 22.984375 17.347656 22.921875 17.328125 C 22.855469 17.304688 22.792969 17.292969 22.726562 17.292969 Z M 22.726562 17.292969 "></path>
</g>
<path style=" stroke:none;fill-rule:nonzero;fill:rgb(13.725491%,12.156863%,12.54902%);fill-opacity:1;" d="M 25.691406 18.8125 L 25.691406 17.132812 L 25.914062 17.132812 L 26.796875 18.449219 L 26.796875 17.132812 L 27.011719 17.132812 L 27.011719 18.8125 L 26.78125 18.8125 L 25.90625 17.492188 L 25.90625 18.8125 Z M 25.691406 18.8125 "></path>
<path style=" stroke:none;fill-rule:nonzero;fill:rgb(13.725491%,12.156863%,12.54902%);fill-opacity:1;" d="M 29.257812 18.8125 L 29.257812 17.132812 L 29.476562 17.132812 L 29.476562 18.617188 L 30.300781 18.617188 L 30.300781 18.8125 Z M 29.257812 18.8125 "></path>
<path style=" stroke:none;fill-rule:nonzero;fill:rgb(13.725491%,12.156863%,12.54902%);fill-opacity:1;" d="M 32.484375 18.8125 L 32.484375 17.132812 L 32.710938 17.132812 L 32.710938 18.8125 Z M 32.484375 18.8125 "></path>
<path style=" stroke:none;fill-rule:nonzero;fill:rgb(13.725491%,12.156863%,12.54902%);fill-opacity:1;" d="M 34.972656 18.8125 L 34.972656 17.132812 L 35.199219 17.132812 L 36.082031 18.449219 L 36.082031 17.132812 L 36.296875 17.132812 L 36.296875 18.8125 L 36.066406 18.8125 L 35.1875 17.492188 L 35.1875 18.8125 Z M 34.972656 18.8125 "></path>
<path style=" stroke:none;fill-rule:nonzero;fill:rgb(13.725491%,12.156863%,12.54902%);fill-opacity:1;" d="M 38.550781 18.8125 L 38.550781 17.132812 L 39.765625 17.132812 L 39.765625 17.328125 L 38.769531 17.328125 L 38.769531 17.84375 L 39.703125 17.84375 L 39.703125 18.042969 L 38.769531 18.042969 L 38.769531 18.617188 L 39.804688 18.617188 L 39.804688 18.8125 Z M 38.550781 18.8125 "></path>
<path style=" stroke:none;fill-rule:nonzero;fill:rgb(13.725491%,12.156863%,12.54902%);fill-opacity:1;" d="M 45.921875 18.339844 C 45.921875 18.496094 45.863281 18.617188 45.75 18.707031 C 45.632812 18.796875 45.484375 18.839844 45.304688 18.839844 C 45.085938 18.839844 44.914062 18.792969 44.789062 18.699219 C 44.664062 18.605469 44.597656 18.460938 44.585938 18.273438 L 44.796875 18.257812 C 44.832031 18.515625 44.996094 18.644531 45.292969 18.644531 C 45.355469 18.644531 45.417969 18.636719 45.472656 18.621094 C 45.53125 18.609375 45.585938 18.578125 45.636719 18.53125 C 45.6875 18.488281 45.714844 18.429688 45.714844 18.359375 C 45.714844 18.265625 45.675781 18.199219 45.601562 18.160156 C 45.527344 18.121094 45.390625 18.078125 45.199219 18.035156 C 45.007812 17.988281 44.871094 17.929688 44.78125 17.855469 C 44.695312 17.785156 44.652344 17.6875 44.652344 17.5625 C 44.652344 17.417969 44.707031 17.304688 44.816406 17.226562 C 44.929688 17.144531 45.070312 17.101562 45.242188 17.101562 C 45.429688 17.101562 45.582031 17.148438 45.691406 17.234375 C 45.808594 17.320312 45.867188 17.445312 45.871094 17.609375 L 45.664062 17.625 C 45.640625 17.410156 45.503906 17.300781 45.253906 17.300781 C 44.996094 17.300781 44.867188 17.382812 44.867188 17.554688 C 44.867188 17.628906 44.894531 17.683594 44.957031 17.722656 C 45.019531 17.761719 45.121094 17.792969 45.265625 17.824219 C 45.304688 17.828125 45.351562 17.835938 45.394531 17.851562 C 45.441406 17.863281 45.492188 17.875 45.542969 17.890625 C 45.589844 17.90625 45.636719 17.925781 45.683594 17.953125 C 45.730469 17.980469 45.773438 18.007812 45.804688 18.042969 C 45.84375 18.074219 45.871094 18.113281 45.890625 18.167969 C 45.914062 18.21875 45.921875 18.277344 45.921875 18.339844 Z M 45.921875 18.339844 "></path>
<path style=" stroke:none;fill-rule:nonzero;fill:rgb(13.725491%,12.156863%,12.54902%);fill-opacity:1;" d="M 48.109375 18.8125 L 48.109375 17.132812 L 48.335938 17.132812 L 48.335938 17.824219 L 49.207031 17.824219 L 49.207031 17.132812 L 49.433594 17.132812 L 49.433594 18.8125 L 49.207031 18.8125 L 49.207031 18.019531 L 48.335938 18.019531 L 48.335938 18.8125 Z M 48.109375 18.8125 "></path>
<path style=" stroke:none;fill-rule:nonzero;fill:rgb(13.725491%,12.156863%,12.54902%);fill-opacity:1;" d="M 52.414062 18.839844 C 52.171875 18.839844 51.976562 18.761719 51.828125 18.597656 C 51.683594 18.4375 51.609375 18.238281 51.609375 17.992188 C 51.609375 17.726562 51.679688 17.511719 51.816406 17.351562 C 51.960938 17.1875 52.15625 17.101562 52.414062 17.101562 C 52.515625 17.101562 52.617188 17.121094 52.710938 17.160156 C 52.804688 17.191406 52.890625 17.246094 52.964844 17.316406 C 53.042969 17.382812 53.105469 17.476562 53.148438 17.59375 C 53.195312 17.703125 53.21875 17.832031 53.21875 17.976562 C 53.21875 18.109375 53.199219 18.230469 53.160156 18.335938 C 53.125 18.4375 53.078125 18.519531 53.019531 18.582031 C 52.964844 18.644531 52.898438 18.695312 52.824219 18.734375 C 52.753906 18.777344 52.683594 18.804688 52.617188 18.820312 C 52.546875 18.832031 52.480469 18.839844 52.414062 18.839844 Z M 52.414062 17.292969 C 52.304688 17.292969 52.210938 17.316406 52.132812 17.355469 C 52.054688 17.398438 51.992188 17.453125 51.953125 17.523438 C 51.910156 17.597656 51.878906 17.671875 51.863281 17.75 C 51.847656 17.824219 51.839844 17.90625 51.839844 17.996094 C 51.839844 18.1875 51.890625 18.347656 51.992188 18.46875 C 52.09375 18.589844 52.234375 18.648438 52.414062 18.648438 C 52.59375 18.648438 52.734375 18.589844 52.835938 18.464844 C 52.9375 18.335938 52.988281 18.175781 52.988281 17.976562 C 52.988281 17.847656 52.96875 17.738281 52.929688 17.644531 C 52.898438 17.550781 52.847656 17.480469 52.789062 17.429688 C 52.734375 17.382812 52.671875 17.347656 52.609375 17.328125 C 52.546875 17.304688 52.480469 17.292969 52.414062 17.292969 Z M 52.414062 17.292969 "></path>
<path style=" stroke:none;fill-rule:nonzero;fill:rgb(13.725491%,12.156863%,12.54902%);fill-opacity:1;" d="M 55.378906 18.8125 L 55.378906 17.132812 L 56.015625 17.132812 C 56.230469 17.132812 56.390625 17.171875 56.5 17.25 C 56.605469 17.324219 56.660156 17.449219 56.660156 17.621094 C 56.660156 17.960938 56.449219 18.132812 56.03125 18.132812 L 55.605469 18.132812 L 55.605469 18.8125 Z M 56.429688 17.625 C 56.429688 17.515625 56.398438 17.4375 56.335938 17.394531 C 56.269531 17.351562 56.167969 17.328125 56.03125 17.328125 L 55.605469 17.328125 L 55.605469 17.929688 L 56.039062 17.929688 C 56.300781 17.929688 56.429688 17.828125 56.429688 17.625 Z M 56.429688 17.625 "></path>
<path style=" stroke:none;fill-rule:nonzero;fill:rgb(13.725491%,12.156863%,12.54902%);fill-opacity:1;" d="M 58.820312 18.8125 L 58.820312 17.132812 L 59.457031 17.132812 C 59.671875 17.132812 59.832031 17.171875 59.941406 17.25 C 60.046875 17.324219 60.105469 17.449219 60.105469 17.621094 C 60.105469 17.960938 59.894531 18.132812 59.472656 18.132812 L 59.046875 18.132812 L 59.046875 18.8125 Z M 59.871094 17.625 C 59.871094 17.515625 59.839844 17.4375 59.777344 17.394531 C 59.710938 17.351562 59.613281 17.328125 59.472656 17.328125 L 59.046875 17.328125 L 59.046875 17.929688 L 59.480469 17.929688 C 59.742188 17.929688 59.871094 17.828125 59.871094 17.625 Z M 59.871094 17.625 "></path>
<path style=" stroke:none;fill-rule:nonzero;fill:rgb(13.725491%,12.156863%,12.54902%);fill-opacity:1;" d="M 62.300781 18.8125 L 62.300781 17.132812 L 62.527344 17.132812 L 62.527344 18.8125 Z M 62.300781 18.8125 "></path>
<path style=" stroke:none;fill-rule:nonzero;fill:rgb(13.725491%,12.156863%,12.54902%);fill-opacity:1;" d="M 64.792969 18.8125 L 64.792969 17.132812 L 65.015625 17.132812 L 65.898438 18.449219 L 65.898438 17.132812 L 66.113281 17.132812 L 66.113281 18.8125 L 65.882812 18.8125 L 65.003906 17.492188 L 65.003906 18.8125 Z M 64.792969 18.8125 "></path>
<path style=" stroke:none;fill-rule:nonzero;fill:rgb(13.725491%,12.156863%,12.54902%);fill-opacity:1;" d="M 68.539062 17.96875 C 68.539062 18.183594 68.589844 18.347656 68.695312 18.464844 C 68.804688 18.582031 68.957031 18.640625 69.15625 18.640625 C 69.351562 18.640625 69.511719 18.582031 69.640625 18.46875 L 69.640625 18.15625 L 69.148438 18.15625 L 69.148438 17.957031 L 69.863281 17.957031 L 69.863281 18.578125 C 69.640625 18.753906 69.410156 18.839844 69.160156 18.839844 C 68.890625 18.839844 68.683594 18.765625 68.542969 18.609375 C 68.386719 18.453125 68.3125 18.242188 68.3125 17.980469 C 68.3125 17.714844 68.382812 17.503906 68.527344 17.34375 C 68.679688 17.183594 68.886719 17.101562 69.148438 17.101562 C 69.527344 17.101562 69.757812 17.269531 69.835938 17.605469 L 69.632812 17.660156 C 69.566406 17.417969 69.40625 17.292969 69.148438 17.292969 C 69.070312 17.292969 69 17.304688 68.929688 17.328125 C 68.863281 17.347656 68.796875 17.382812 68.738281 17.429688 C 68.679688 17.472656 68.628906 17.542969 68.59375 17.636719 C 68.554688 17.730469 68.539062 17.84375 68.539062 17.96875 Z M 68.539062 17.96875 "></path>
</g>
</svg>